<svg xmlns="http://www.w3.org/2000/svg" xmlns:xlink="http://www.w3.org/1999/xlink" width="1200" zoomAndPan="magnify" viewBox="0 0 900 361.499994" height="482" preserveAspectRatio="xMidYMid meet" version="1.2"><defs><clipPath id="4afa91e936"><path d="M 41 194 L 136 194 L 136 291.453125 L 41 291.453125 Z M 41 194 "/></clipPath><clipPath id="22150608a3"><path d="M 141 194 L 236 194 L 236 291.453125 L 141 291.453125 Z M 141 194 "/></clipPath><clipPath id="3c61ba02c0"><path d="M 21.5 45.792969 L 91 45.792969 L 91 157 L 21.5 157 Z M 21.5 45.792969 "/></clipPath><clipPath id="5520db1ab0"><path d="M 186 45.792969 L 255.925781 45.792969 L 255.925781 157 L 186 157 Z M 186 45.792969 "/></clipPath><clipPath id="c4d95a64e7"><path d="M 0.621094 77.824219 L 276.988281 77.824219 L 276.988281 256.828125 L 0.621094 256.828125 Z M 0.621094 77.824219 "/></clipPath></defs><g id="35a81cdcb1"><g clip-rule="nonzero" clip-path="url(#4afa91e936)"><path style=" stroke:none;fill-rule:nonzero;fill:#0075b2;fill-opacity:1;" d="M 101.402344 212.921875 C 122.644531 236.46875 135.246094 289.992188 135.59375 291.441406 C 135.566406 291.46875 135.566406 291.441406 135.566406 291.441406 C 135.566406 291.414062 135.566406 291.414062 135.566406 291.414062 C 134.683594 289.617188 111.78125 243.328125 79.707031 219.355469 C 81.207031 221.125 105.691406 249.902344 125.40625 285.460938 C 90.464844 263.308594 60.671875 228.5 41.28125 195.382812 C 41.28125 195.382812 79.871094 189.054688 101.402344 212.921875 Z M 101.402344 212.921875 "/></g><g clip-rule="nonzero" clip-path="url(#22150608a3)"><path style=" stroke:none;fill-rule:nonzero;fill:#0075b2;fill-opacity:1;" d="M 197.328125 219.355469 C 165.253906 243.328125 142.351562 289.617188 141.46875 291.414062 C 141.46875 291.414062 141.46875 291.414062 141.46875 291.441406 C 141.46875 291.441406 141.46875 291.46875 141.441406 291.441406 C 141.789062 289.992188 154.390625 236.464844 175.632812 212.921875 C 197.164062 189.054688 235.753906 195.382812 235.753906 195.382812 C 216.363281 228.5 186.570312 263.308594 151.628906 285.460938 C 171.367188 249.902344 195.828125 221.128906 197.328125 219.355469 Z M 197.328125 219.355469 "/></g><g clip-rule="nonzero" clip-path="url(#3c61ba02c0)"><path style=" stroke:none;fill-rule:nonzero;fill:#0075b2;fill-opacity:1;" d="M 90.0625 46.335938 C 57.019531 77.175781 79.414062 124.589844 35.515625 156.902344 C 35.515625 156.902344 32.109375 112.226562 58.070312 68.378906 C 58.070312 68.378906 30.445312 96.480469 25.835938 156.902344 C 16.34375 117.210938 20.714844 67.871094 56.859375 51.511719 C 68.90625 46.066406 80.085938 44.941406 90.0625 46.335938 Z M 90.0625 46.335938 "/></g><g clip-rule="nonzero" clip-path="url(#5520db1ab0)"><path style=" stroke:none;fill-rule:nonzero;fill:#0075b2;fill-opacity:1;" d="M 186.972656 46.335938 C 220.015625 77.175781 197.621094 124.589844 241.519531 156.902344 C 241.519531 156.902344 244.925781 112.226562 218.964844 68.378906 C 218.964844 68.378906 246.589844 96.480469 251.199219 156.902344 C 260.695312 117.210938 256.320312 67.871094 220.175781 51.511719 C 208.136719 46.066406 196.953125 44.941406 186.972656 46.335938 Z M 186.972656 46.335938 "/></g><g clip-rule="nonzero" clip-path="url(#c4d95a64e7)"><path style=" stroke:none;fill-rule:nonzero;fill:#465c71;fill-opacity:1;" d="M 138.671875 256.535156 L 91.867188 124.800781 L 70.421875 182.382812 L 0.863281 182.382812 L 59.265625 166.320312 L 92.222656 77.824219 L 138.671875 208.5625 L 185.117188 77.824219 L 218.074219 166.320312 L 276.480469 182.382812 L 206.917969 182.382812 L 185.476562 124.800781 Z M 138.671875 256.535156 "/></g><g style="fill:#0075b2;fill-opacity:1;"><g transform="translate(276.428655, 212.259272)"><path style="stroke:none" d="M 101.890625 0 L 85.03125 0 L 85.03125 -40.359375 C 85.03125 -43.078125 85.046875 -45.234375 85.078125 -46.828125 C 85.117188 -48.421875 85.394531 -55.070312 85.90625 -66.78125 L 85.375 -66.78125 L 63.390625 0 L 46.828125 0 L 26.296875 -66.890625 L 25.78125 -66.890625 C 26.519531 -53.628906 26.890625 -44.550781 26.890625 -39.65625 L 26.890625 0 L 10.734375 0 L 10.734375 -85.265625 L 35.34375 -85.265625 L 55.515625 -20.0625 L 55.875 -20.0625 L 77.265625 -85.265625 L 101.890625 -85.265625 Z M 101.890625 0 "/></g></g><g style="fill:#0075b2;fill-opacity:1;"><g transform="translate(389.03873, 212.259272)"><path style="stroke:none" d="M 59.828125 -70.453125 L 28.8125 -70.453125 L 28.8125 -51.734375 L 57.625 -51.734375 L 57.625 -36.921875 L 28.8125 -36.921875 L 28.8125 -14.9375 L 59.828125 -14.9375 L 59.828125 0 L 10.734375 0 L 10.734375 -85.265625 L 59.828125 -85.265625 Z M 59.828125 -70.453125 "/></g></g><g style="fill:#0075b2;fill-opacity:1;"><g transform="translate(455.928298, 212.259272)"><path style="stroke:none" d="M 10.734375 -85.265625 L 37.5 -85.265625 C 51.414062 -85.265625 62.222656 -81.585938 69.921875 -74.234375 C 77.617188 -66.890625 81.46875 -56.628906 81.46875 -43.453125 C 81.46875 -29.410156 77.472656 -18.65625 69.484375 -11.1875 C 61.492188 -3.726562 49.957031 0 34.875 0 L 10.734375 0 Z M 28.8125 -70.453125 L 28.8125 -14.9375 L 36.5625 -14.9375 C 53.976562 -14.9375 62.6875 -24.285156 62.6875 -42.984375 C 62.6875 -61.296875 54.601562 -70.453125 38.4375 -70.453125 Z M 28.8125 -70.453125 "/></g></g><g style="fill:#0075b2;fill-opacity:1;"><g transform="translate(544.33683, 212.259272)"><path style="stroke:none" d="M 28.8125 0 L 10.734375 0 L 10.734375 -85.265625 L 28.8125 -85.265625 Z M 28.8125 0 "/></g></g><g style="fill:#0075b2;fill-opacity:1;"><g transform="translate(583.875739, 212.259272)"><path style="stroke:none" d="M 45.1875 1.171875 C 32.789062 1.171875 23.304688 -2.578125 16.734375 -10.078125 C 10.160156 -17.585938 6.875 -28.398438 6.875 -42.515625 C 6.875 -42.710938 6.875 -42.90625 6.875 -43.09375 C 6.875 -51.644531 8.488281 -59.234375 11.71875 -65.859375 C 14.945312 -72.492188 19.550781 -77.585938 25.53125 -81.140625 C 31.519531 -84.703125 38.382812 -86.484375 46.125 -86.484375 C 46.394531 -86.484375 46.648438 -86.484375 46.890625 -86.484375 C 55.242188 -86.484375 63.5625 -84.484375 71.84375 -80.484375 L 66.015625 -65.78125 C 58.117188 -69.550781 51.742188 -71.4375 46.890625 -71.4375 C 40.078125 -71.4375 34.804688 -68.878906 31.078125 -63.765625 C 27.347656 -58.660156 25.484375 -51.535156 25.484375 -42.390625 C 25.484375 -23.378906 32.617188 -13.875 46.890625 -13.875 C 52.835938 -13.875 60.085938 -15.375 68.640625 -18.375 L 68.640625 -3.203125 C 61.640625 -0.285156 53.820312 1.171875 45.1875 1.171875 Z M 45.1875 1.171875 "/></g></g><g style="fill:#0075b2;fill-opacity:1;"><g transform="translate(659.979388, 212.259272)"><path style="stroke:none" d="M 80.125 -85.265625 L 80.125 -30.09375 C 80.125 -29.976562 80.125 -29.863281 80.125 -29.75 C 80.125 -20.414062 76.972656 -12.925781 70.671875 -7.28125 C 64.378906 -1.644531 55.96875 1.171875 45.4375 1.171875 C 45.238281 1.171875 45.023438 1.171875 44.796875 1.171875 C 33.828125 1.171875 25.304688 -1.644531 19.234375 -7.28125 C 13.171875 -12.925781 10.140625 -20.609375 10.140625 -30.328125 L 10.140625 -85.265625 L 28.171875 -85.265625 L 28.171875 -33.0625 C 28.171875 -26.457031 29.507812 -21.628906 32.1875 -18.578125 C 34.875 -15.523438 39.191406 -14 45.140625 -14 C 51.085938 -14 55.398438 -15.535156 58.078125 -18.609375 C 60.765625 -21.679688 62.109375 -26.539062 62.109375 -33.1875 L 62.109375 -85.265625 Z M 80.125 -85.265625 "/></g></g><g style="fill:#0075b2;fill-opacity:1;"><g transform="translate(750.254038, 212.259272)"><path style="stroke:none" d="M 10.734375 -85.265625 L 35.578125 -85.265625 C 47.117188 -85.265625 55.679688 -83.164062 61.265625 -78.96875 C 66.847656 -74.769531 69.640625 -68.351562 69.640625 -59.71875 C 69.640625 -54.707031 68.257812 -50.242188 65.5 -46.328125 C 62.738281 -42.421875 58.828125 -39.363281 53.765625 -37.15625 C 67.453125 -16.695312 75.8125 -4.3125 78.84375 0 L 58.78125 0 L 38.4375 -32.71875 L 28.8125 -32.71875 L 28.8125 0 L 10.734375 0 Z M 28.8125 -70.453125 L 28.8125 -47.40625 L 34.640625 -47.40625 C 40.359375 -47.40625 44.578125 -48.359375 47.296875 -50.265625 C 50.015625 -52.171875 51.375 -55.144531 51.375 -59.1875 C 51.375 -63.238281 50.003906 -66.128906 47.265625 -67.859375 C 44.523438 -69.585938 40.203125 -70.453125 34.296875 -70.453125 Z M 28.8125 -70.453125 "/></g></g><g style="fill:#0075b2;fill-opacity:1;"><g transform="translate(829.098586, 212.259272)"><path style="stroke:none" d="M 59.828125 -70.453125 L 28.8125 -70.453125 L 28.8125 -51.734375 L 57.625 -51.734375 L 57.625 -36.921875 L 28.8125 -36.921875 L 28.8125 -14.9375 L 59.828125 -14.9375 L 59.828125 0 L 10.734375 0 L 10.734375 -85.265625 L 59.828125 -85.265625 Z M 59.828125 -70.453125 "/></g></g></g></svg>